<svg xmlns="http://www.w3.org/2000/svg"  viewBox="0 0 50 50" width="50px" height="50px"><path d="M 6 2 C 4.3550302 2 3 3.3550302 3 5 L 3 35 C 3 36.64497 4.3550302 38 6 38 L 18 38 L 18 43 C 18 45.749516 20.250484 48 23 48 C 25.749516 48 28 45.749516 28 43 L 28 41.478516 C 28.977814 41.718499 29.94405 42 31 42 C 38.167516 42 44 36.167516 44 29 C 44 27.355563 43.680797 25.787468 43.121094 24.337891 L 43.246094 24.390625 L 47.095703 15.316406 L 46.902344 14.910156 C 46.902344 14.910156 45.845211 12.70507 43.341797 10.578125 C 42.216157 9.6217612 40.766476 8.6794566 39 7.9199219 L 39 5 C 39 3.3550302 37.64497 2 36 2 L 6 2 z M 6 4 L 20 4 L 20 10.111328 C 17.025096 12.329151 15.449219 14.701172 15.449219 14.701172 L 15.150391 15.15625 L 16.830078 19 L 5 19 L 5 5 C 5 4.4349698 5.4349698 4 6 4 z M 22 4 L 36 4 C 36.56503 4 37 4.4349698 37 5 L 37 7.1875 C 35.255111 6.6678611 33.258214 6.3398438 30.972656 6.3398438 C 27.38328 6.3398438 24.384553 7.4181999 22 8.7949219 L 22 4 z M 30.972656 8.3398438 C 36.34707 8.3398438 39.842289 10.228508 42.046875 12.101562 C 43.909031 13.683684 44.648691 14.982108 44.880859 15.417969 L 42.025391 22.146484 C 39.727506 18.463668 35.650916 16 31 16 C 26.514318 16 22.550373 18.283606 20.212891 21.75 L 17.4375 15.396484 C 18.219047 14.310587 22.84292 8.3398436 30.972656 8.3398438 z M 30.980469 9.9863281 A 1.0001 1.0001 0 0 0 29.994141 11 L 29.994141 11.5 L 29.494141 11.5 A 1.0001 1.0001 0 1 0 29.494141 13.5 L 29.994141 13.5 L 29.994141 14 A 1.0001 1.0001 0 1 0 31.994141 14 L 31.994141 13.5 L 32.494141 13.5 A 1.0001 1.0001 0 1 0 32.494141 11.5 L 31.994141 11.5 L 31.994141 11 A 1.0001 1.0001 0 0 0 30.980469 9.9863281 z M 9.5 11 A 1.0001 1.0001 0 1 0 9.5 13 L 15.5 13 A 1.0001 1.0001 0 1 0 15.5 11 L 9.5 11 z M 31 18 C 37.086484 18 42 22.913516 42 29 C 42 35.086484 37.086484 40 31 40 C 29.715522 40 28.48868 39.767619 27.333984 39.359375 L 26 38.888672 L 26 43 C 26 44.668484 24.668484 46 23 46 C 21.331516 46 20 44.668484 20 43 L 20 29 C 20 22.913516 24.913516 18 31 18 z M 5 21 L 17.703125 21 L 19.007812 23.986328 C 18.359753 25.53026 18 27.223589 18 29 L 18 36 L 6 36 C 5.4349698 36 5 35.56503 5 35 L 5 21 z M 29.128906 23.441406 C 27.221906 23.441406 25.658766 24.786266 25.259766 26.572266 L 26.255859 26.980469 L 26.544922 26.382812 C 26.665922 26.134812 26.962891 26.028391 27.212891 26.150391 C 27.461891 26.270391 27.566313 26.570359 27.445312 26.818359 L 26.949219 27.839844 C 26.863219 28.017844 26.686 28.121094 26.5 28.121094 C 26.468 28.121094 26.435344 28.109516 26.402344 28.103516 L 26.111328 28.962891 C 26.040328 29.171891 25.847672 29.302734 25.638672 29.302734 C 25.585672 29.302734 25.530562 29.294344 25.476562 29.277344 C 25.215563 29.188344 25.076062 28.903578 25.164062 28.642578 L 25.470703 27.740234 L 24.654297 27.40625 C 24.131297 27.92425 23.802734 28.635688 23.802734 29.429688 C 23.802734 29.845688 23.896641 30.238703 24.056641 30.595703 C 24.580641 31.078703 25.153797 31.374266 25.966797 31.447266 C 28.109797 31.638266 29.266812 32.248781 30.132812 33.175781 C 30.156813 33.193781 30.175219 33.216422 30.199219 33.232422 C 30.330219 33.346422 30.470094 33.457594 30.621094 33.558594 C 31.914094 34.420594 33.431766 34.416828 34.009766 33.548828 C 34.196766 33.268828 34.249031 32.930219 34.207031 32.574219 C 33.555031 31.006219 32.011938 29.898438 30.210938 29.898438 C 29.709937 29.898438 29.217047 29.985297 28.748047 30.154297 C 28.486047 30.243297 28.200422 30.111562 28.107422 29.851562 C 28.014422 29.591563 28.149203 29.306891 28.408203 29.212891 C 28.987203 29.004891 29.594938 28.898438 30.210938 28.898438 C 32.694938 28.898438 34.770422 30.614969 35.357422 32.917969 C 35.461422 32.935969 35.562875 32.960937 35.671875 32.960938 C 36.604875 32.960938 37.367094 32.268094 37.496094 31.371094 C 38.279094 30.932094 38.816406 30.104578 38.816406 29.142578 C 38.819406 27.804578 37.789422 26.720516 36.482422 26.603516 C 36.463422 26.671516 36.453125 26.7465 36.453125 26.8125 C 36.453125 27.4575 35.883766 28.018422 34.759766 28.482422 C 34.696766 28.508422 34.632359 28.521484 34.568359 28.521484 C 34.372359 28.521484 34.186422 28.404937 34.107422 28.210938 C 34.002422 27.955938 34.124906 27.663594 34.378906 27.558594 C 35.272906 27.189594 35.453125 26.8755 35.453125 26.8125 C 35.453125 26.3585 35.591281 25.999047 35.863281 25.748047 C 35.973281 25.646047 36.098516 25.577484 36.228516 25.521484 C 35.803516 24.540484 34.827453 23.853516 33.689453 23.853516 C 33.047453 23.853516 32.469 24.087078 32 24.455078 L 32 25.070312 C 32.395 25.330313 33.006563 25.399391 33.226562 25.400391 C 33.501562 25.401391 33.725562 25.625391 33.726562 25.900391 C 33.726562 26.175391 33.503516 26.399391 33.228516 26.400391 L 33.224609 26.400391 C 33.126609 26.400391 32.572 26.386594 32 26.183594 L 32 26.199219 C 32 26.640219 31.640266 27 31.197266 27 L 30.5 27 C 30.224 27 30 26.776 30 26.5 C 30 26.224 30.224 26 30.5 26 L 31 26 L 31 23.931641 C 30.44 23.628641 29.809906 23.441406 29.128906 23.441406 z M 10.53125 25.447266 A 1.0001 1.0001 0 0 0 9.8339844 27.166016 L 11.125 28.457031 L 9.8339844 29.75 A 1.0012744 1.0012744 0 1 0 11.25 31.166016 L 12.542969 29.875 L 13.833984 31.166016 A 1.0012745 1.0012745 0 0 0 15.25 29.75 L 13.957031 28.457031 L 15.25 27.166016 A 1.0001 1.0001 0 0 0 14.521484 25.449219 A 1.0001 1.0001 0 0 0 13.833984 25.75 L 12.542969 27.042969 L 11.25 25.75 A 1.0001 1.0001 0 0 0 10.53125 25.447266 z M 24.587891 32.126953 C 24.673891 33.541953 25.837438 34.664062 27.273438 34.664062 C 28.082438 34.664062 28.798016 34.302281 29.291016 33.738281 C 28.578016 33.038281 27.620859 32.596406 25.880859 32.441406 C 25.390859 32.397406 24.967891 32.288953 24.587891 32.126953 z M 30.017578 34.386719 C 29.537578 34.940719 28.91275 35.346172 28.21875 35.576172 C 28.07275 35.624172 27.971656 35.754203 27.972656 35.908203 L 27.978516 37.248047 L 28.445312 37.265625 C 28.696312 36.440625 29.390703 36.072922 30.220703 35.794922 C 30.426703 35.725922 30.135594 35.193375 30.558594 34.734375 C 30.404594 34.651375 30.173391 34.488625 30.025391 34.390625 C 30.023391 34.388625 30.020578 34.388719 30.017578 34.386719 z"/></svg>