<?xml version="1.0" encoding="utf-8"?>
<svg version="1.1" id="layer" xmlns="http://www.w3.org/2000/svg" xmlns:xlink="http://www.w3.org/1999/xlink" 
    x="0px" y="0px" viewBox="-153 -46 652 652" style="enable-background:new -153 -46 652 652;" xml:space="preserve">
  
  <!-- White Background -->
  <defs>
    <mask id="mask">
      <rect width="500" height="500" fill="transparent"/>
    </mask>
  </defs>

  <g>
    <g transform="scale(1.2)">
      <!-- Black Path -->
      <path fill="none" stroke="blue" transform="translate(-30,10)" mask="url(#mask)" stroke-width="2" d="M269,225.5v-77.8c0-1.2-1.5-1.7-2.3-0.8l-85,106.2c-0.7,0.8-0.1,2.1,1,2.1h61.4c1.7,0,3.2-0.8,4.2-2.1
        l19.4-24.2C268.5,228,269,226.8,269,225.5L269,225.5z M70.2,229l63.8,79.8c1,1.3,2.6,2,4.3,2h61.4c1.1,0,1.7-1.2,1-2L71.2,147
        c-0.8-0.9-2.3-0.4-2.3,0.8v77.8C69,226.8,69.4,228,70.2,229L70.2,229z M70.2,229"/>
    </g>
  </g>
</svg>
